# xmcd CD database file
#
# Track frame offsets:
#	150
#	12247
#	18835
#	38610
#	45073
#	63197
#	76096
#	90928
#	101760
#	114954
#	123747
#	136866
#	146393
#	158779
#	171139
#	189272
#	201332
#	213713
#	227292
#	241555
#
# Disc length: 3472 seconds
#
# Revision: 1
# Processed by: cddbd v1.5.1PL2 Copyright (c) Steve Scherf et al.
# Submitted via: CDex 1.51
#
DISCID=e70d8e14
DTITLE=Richard Ray Farell - Street Songs, Jazzy Tunes &Down Home Blues
DYEAR=1998
DGENRE=Blues
TTITLE0=Just Keep Lovin¥Her
TTITLE1=Five Foot Two Eyes of Blue
TTITLE2=Big Road Blues
TTITLE3=Somebody Stole My Gal
TTITLE4=And I Stoned Me
TTITLE5=Ain¥t Got A Home
TTITLE6=Good Gin Blues
TTITLE7=It¥s Your Fault
TTITLE8=Walking¥And Looking¥ Blues
TTITLE9=Shaking¥That Thing
TTITLE10=Shiver My Timbers
TTITLE11=How Can You Face Me
TTITLE12=Come Back Baby
TTITLE13=Walking¡ Tightrope
TTITLE14=Go Back To Your No Good Man
TTITLE15=Sassy Mae
TTITLE16=Forty Days& Fourty Nights
TTITLE17=Mystery Train
TTITLE18=Gambler Blues
TTITLE19=Church Street Shuffle
EXTD=YEAR: 1998
EXTT0=
EXTT1=
EXTT2=
EXTT3=
EXTT4=
EXTT5=
EXTT6=
EXTT7=
EXTT8=
EXTT9=
EXTT10=
EXTT11=
EXTT12=
EXTT13=
EXTT14=
EXTT15=
EXTT16=
EXTT17=
EXTT18=
EXTT19=
PLAYORDER=
